<?xml version="1.0" encoding="utf-8"?>
<!-- Generator: Adobe Illustrator 17.0.0, SVG Export Plug-In . SVG Version: 6.00 Build 0)  -->
<!DOCTYPE svg PUBLIC "-//W3C//DTD SVG 1.1//EN" "http://www.w3.org/Graphics/SVG/1.1/DTD/svg11.dtd">
<svg version="1.1" id="Camada_1" xmlns="http://www.w3.org/2000/svg" xmlns:xlink="http://www.w3.org/1999/xlink" x="0px" y="0px"
	 width="1920px" height="450.045px" viewBox="0 323.297 1920 450.045" enable-background="new 0 323.297 1920 450.045"
	 xml:space="preserve">
<g>
	<g>
		<path fill="#000000" d="M401.27,606.878c55.873,0,99.894-44.021,99.894-99.894H401.27V606.878z"/>
		<path fill="#000000" d="M367.407,339.365L367.407,339.365c-55.873,0-99.894,44.021-99.894,99.894h99.894l0,0h167.619v-99.894
			H367.407z"/>
	</g>
	<g>
		<path d="M133.757,573.016L133.757,573.016c0,55.873,44.021,99.894,99.894,99.894v-99.894l0,0v-99.894h-99.894V573.016z"/>
		<path d="M267.513,539.153v99.894l0,0c0,55.873,44.021,99.894,99.894,99.894v-99.894l0,0v-99.894v-66.032h-99.894V539.153
			L267.513,539.153z"/>
		<path d="M0,506.984c0,55.873,44.021,99.894,99.894,99.894v-99.894v-33.862H0V506.984z"/>
		<path d="M866.878,490.053c-3.386,0-6.773,1.693-8.466,5.079l-42.328,126.984L775.45,496.825c-1.693-5.079-3.386-6.772-8.466-6.772
			c-1.693,0-3.386,0-5.079,1.693c-1.693,1.693-3.386,3.386-3.386,5.079l-40.635,128.677l-42.328-130.37
			c0-1.693-1.693-3.386-3.386-3.386c-1.693-1.693-3.386-1.693-5.079-1.693c-5.079,0-8.466,3.386-8.466,8.466c0,0,0,1.693,0,5.079
			l49.101,147.302c0,1.693,1.693,3.386,3.386,5.079c1.693,1.693,3.386,1.693,5.079,1.693c5.079,0,6.773-1.693,8.466-5.079
			l40.635-128.677l42.328,128.677c0,1.693,1.693,3.386,3.386,5.079s3.386,1.693,5.079,1.693c1.693,0,3.386,0,5.079-1.693
			c1.693-1.693,3.386-1.693,3.386-5.079l49.101-147.302c0-1.693,1.693-3.386,1.693-5.079c0-1.693,0-5.079-1.693-6.772
			C871.958,490.053,870.265,490.053,866.878,490.053z"/>
		<path d="M1007.407,500.212c-10.159-6.772-23.704-10.159-38.942-10.159c-15.238,0-28.783,3.386-40.635,10.159
			c-11.852,6.772-20.317,16.931-27.09,30.476c-6.773,11.852-10.159,27.09-10.159,44.021c0,15.238,3.386,30.476,10.159,42.328
			c6.773,11.852,16.931,22.011,28.783,30.476c11.852,6.773,27.09,10.159,42.328,10.159c10.159,0,18.624-1.693,28.783-5.079
			s18.624-8.466,25.397-15.238c1.693-1.693,3.386-3.386,3.386-5.079s-1.693-5.079-3.386-6.772c-1.693-1.693-3.386-1.693-5.079-1.693
			s-5.079,0-6.773,1.693c-5.079,5.079-10.159,8.466-18.624,10.159c-8.466,3.386-15.238,3.386-23.704,3.386
			c-11.852,0-22.011-3.386-32.169-8.466c-10.159-5.079-16.931-11.852-22.011-22.011c-5.079-8.466-8.466-20.317-8.466-32.169h125.291
			c3.386,0,5.079,0,6.772-1.693s1.693-3.386,1.693-6.772c0-15.238-3.386-28.783-10.159-42.328
			C1027.725,517.143,1019.259,506.984,1007.407,500.212z M910.899,562.857c1.693-16.931,8.466-30.476,18.624-40.635
			c10.159-10.159,23.704-15.238,38.942-15.238c16.931,0,28.783,5.079,40.635,15.238c10.159,10.159,16.931,23.704,18.624,40.635
			H910.899L910.899,562.857z"/>
		<path d="M1203.81,500.212c-11.852-6.772-27.09-10.159-42.328-10.159c-13.545,0-27.09,3.386-38.942,8.466
			c-11.852,6.772-20.318,13.545-27.09,25.397v-91.429c0-3.386-1.693-5.079-1.693-6.772c-1.693-1.693-5.079-3.386-6.772-3.386
			c-3.386,0-5.079,0-6.773,1.693c-1.693,1.693-1.693,3.386-1.693,6.772v143.915l0,0c0,15.238,3.386,28.783,11.852,42.328
			c6.773,11.852,16.931,22.011,30.476,28.783c11.852,6.772,27.09,10.159,42.328,10.159s30.476-3.386,42.328-10.159
			c13.545-6.773,22.011-16.931,30.476-30.476c6.772-13.545,10.159-27.09,10.159-42.328s-3.386-30.476-10.159-42.328
			C1227.513,518.836,1217.354,508.677,1203.81,500.212z M1219.048,606.878c-5.079,10.159-13.545,18.624-23.704,23.704
			s-20.317,8.466-33.862,8.466c-11.852,0-23.704-3.386-33.862-8.466s-16.931-13.545-23.704-23.704
			c-5.079-10.159-8.466-22.011-8.466-33.862c0-11.852,3.386-23.704,8.466-33.862c5.079-10.159,13.545-18.624,23.704-23.704
			s20.317-8.466,33.862-8.466c11.852,0,23.704,3.386,33.862,8.466c10.159,5.079,18.624,13.545,23.704,23.704
			c5.079,10.159,8.466,22.011,8.466,33.862C1227.513,586.561,1224.127,596.72,1219.048,606.878z"/>
		<path d="M1342.646,490.053h-38.942c0-15.238,3.386-27.09,10.159-35.556c5.079-10.159,11.852-15.238,27.09-15.238
			c3.386,0,5.079,0,6.772-1.693s1.693-3.386,1.693-5.079s0-5.079-1.693-5.079c-1.693-3.386-5.079-5.079-6.772-5.079
			c-20.318,0-32.169,6.772-40.635,18.624c-10.159,11.852-15.238,32.169-15.238,52.487v-3.386h-23.704c-1.693,0-5.079,0-5.079,1.693
			c-1.693,1.693-3.386,3.386-3.386,6.772c0,1.693,0,5.079,1.693,5.079c1.693,1.693,3.386,1.693,5.079,1.693h23.704v142.222
			c0,3.386,0,5.079,1.693,6.773c1.693,1.693,3.386,1.693,6.772,1.693c3.386,0,5.079,0,6.772-1.693
			c1.693-1.693,1.693-3.386,1.693-6.773V505.291h38.942c1.693,0,5.079,0,5.079-1.693c0-1.693,1.693-3.386,1.693-5.079
			c0-1.693,0-5.079-1.693-5.079C1346.032,490.053,1344.339,490.053,1342.646,490.053z"/>
		<path d="M1428.995,639.048h-6.772c-6.773,0-11.852-3.386-15.238-8.466c-3.386-5.079-5.079-13.545-5.079-22.011V432.487
			c0-3.386,0-5.079-1.693-6.772c-3.386-1.693-5.079-3.386-8.466-3.386c-3.386,0-5.079,0-6.772,1.693s-1.693,3.386-1.693,6.772
			v177.778c0,15.238,3.386,25.397,10.159,35.556c6.773,8.466,16.931,13.545,27.09,13.545h6.772c3.386,0,5.079,0,6.773-1.693
			c1.693-1.693,1.693-3.386,1.693-6.772c0-3.386,0-5.079-1.693-6.773C1432.381,639.048,1430.688,639.048,1428.995,639.048z"/>
		<path d="M1572.91,500.212c-11.852-6.772-27.09-10.159-42.328-10.159c-15.238,0-30.476,3.386-42.328,10.159
			c-13.545,6.772-22.011,16.931-30.476,30.476c-6.773,13.545-10.159,27.09-10.159,42.328s3.386,30.476,10.159,42.328
			c6.772,13.545,16.931,22.011,30.476,30.476c13.545,6.772,27.09,10.159,42.328,10.159c15.238,0,30.476-3.386,42.328-10.159
			c13.545-6.773,22.011-16.931,30.476-30.476c6.772-13.545,10.159-27.09,10.159-42.328s-3.386-30.476-10.159-42.328
			C1596.614,518.836,1586.455,508.677,1572.91,500.212z M1588.148,606.878c-5.079,10.159-13.545,18.624-23.704,23.704
			s-20.317,8.466-33.862,8.466c-11.852,0-23.704-3.386-33.862-8.466s-18.624-13.545-23.704-23.704
			c-5.079-10.159-8.466-22.011-8.466-33.862c0-11.852,3.386-23.704,8.466-33.862c5.079-10.159,13.545-18.624,23.704-23.704
			s20.317-8.466,33.862-8.466c11.852,0,23.704,3.386,33.862,8.466c10.159,5.079,16.931,13.545,23.704,23.704
			c5.079,10.159,8.466,22.011,8.466,33.862C1596.614,584.868,1593.228,596.72,1588.148,606.878z"/>
		<path d="M1772.698,500.212c-11.852-6.772-25.397-10.159-42.328-10.159c-15.238,0-30.476,3.386-42.328,10.159
			c-13.545,6.772-22.011,16.931-30.476,30.476c-6.772,13.545-10.159,27.09-10.159,42.328s3.386,30.476,10.159,42.328
			c6.773,13.545,16.931,22.011,30.476,30.476c13.545,6.772,27.09,10.159,42.328,10.159c13.545,0,27.09-3.386,38.942-8.466
			c11.852-6.772,20.317-13.545,27.09-25.397v25.397c0,3.386,0,5.079,1.693,6.772s3.386,3.386,6.772,3.386s5.079,0,6.773-3.386
			c1.693-1.693,1.693-3.386,1.693-6.772v-74.497c0-15.238-3.386-30.476-10.159-42.328
			C1796.402,518.836,1786.243,508.677,1772.698,500.212z M1787.937,606.878c-5.079,10.159-13.545,18.624-23.704,23.704
			s-20.317,8.466-33.862,8.466c-11.852,0-23.704-3.386-33.862-8.466s-18.624-13.545-23.704-23.704
			c-5.079-10.159-8.466-22.011-8.466-33.862c0-11.852,3.386-23.704,8.466-33.862c5.079-10.159,13.545-18.624,23.704-23.704
			s20.317-8.466,33.862-8.466c11.852,0,23.704,3.386,33.862,8.466c10.159,5.079,16.931,13.545,23.704,23.704
			c5.079,10.159,8.466,22.011,8.466,33.862C1796.402,584.868,1793.016,596.72,1787.937,606.878z"/>
		<path d="M1909.841,639.048L1909.841,639.048c-10.159,0-20.317-3.386-27.09-10.159c-6.773-6.772-10.159-16.931-10.159-28.783
			v-94.815h38.942c1.693,0,5.079,0,5.079-1.693c0-1.693,1.693-3.386,1.693-5.079c0-1.693,0-5.079-1.693-5.079
			c0-3.386-1.693-3.386-5.08-3.386h-38.942v-57.566c0-3.386,0-5.079-1.693-6.772s-3.386-1.693-6.773-1.693
			c-3.386,0-5.079,0-6.772,1.693s-1.693,3.386-1.693,6.772v57.566h-23.704c-1.693,0-5.079,0-5.079,1.693
			c-1.693,1.693-1.693,3.386-1.693,5.079c0,1.693,0,5.079,1.693,5.079c1.693,1.693,3.386,1.693,5.079,1.693h23.704v94.815
			c0,10.159,1.693,20.317,6.772,28.783c5.079,8.466,11.852,15.238,20.318,20.317c8.466,5.079,18.624,6.773,28.783,6.773
			c3.386,0,5.079,0,6.773-1.693c1.693-1.693,1.693-3.386,1.693-6.772s0-5.079-1.693-6.772
			C1914.921,639.048,1913.228,639.048,1909.841,639.048z"/>
		<path d="M1909.841,655.979L1909.841,655.979L1909.841,655.979L1909.841,655.979z"/>
	</g>
</g>
</svg>
