<svg width="401" height="152" viewBox="0 0 401 152" fill="none" xmlns="http://www.w3.org/2000/svg">
<path d="M103.873 147.348C103.467 146.435 111.278 135.987 114.93 130.713C114.727 128.785 110.771 127.974 108.843 129.698L107.525 131.423C100.83 136.9 89.9762 149.884 88.759 146.739C88.1504 145.015 110.974 120.163 102.149 120.772C100.323 120.975 96.3668 125.032 93.5265 127.872C91.5992 129.8 88.9619 131.828 87.136 133.553C87.0346 133.654 87.0346 133.756 87.136 133.857C87.136 133.959 87.3389 133.959 87.4403 133.959C89.1648 132.437 92.2079 129.597 94.2366 128.582C94.4395 128.38 94.5409 128.38 94.7438 128.278C91.7007 132.031 80.2384 146.131 83.6872 149.377C87.9475 153.434 98.0912 140.552 106.105 133.35C104.482 135.582 102.554 138.32 100.728 141.059C99.2069 143.392 95.6567 148.565 99.1055 150.594C103.163 152.318 113.611 143.899 120.103 137.509C121.422 140.349 124.972 141.363 131.768 137.712C134.203 136.494 137.246 134.364 138.767 132.843C138.869 132.741 138.869 132.538 138.767 132.538C138.666 132.437 138.463 132.437 138.361 132.538C136.333 134.567 134 136.089 131.565 137.306C127.508 139.436 122.334 141.262 120.407 137.204C122.639 134.973 124.566 132.944 125.479 131.727C127.001 130.002 134.811 120.67 128.218 121.178C122.537 121.482 117.871 131.828 119.9 137.103C114.321 142.581 107.829 147.957 103.873 147.348ZM120.204 136.799C119.9 135.886 119.799 134.669 119.9 133.248C120.306 128.988 124.262 120.366 129.638 121.786C132.782 122.598 125.073 131.625 123.957 132.741C123.247 133.654 121.929 135.074 120.204 136.799Z" fill="url(#paint0_linear_1_3)"/>
<path d="M140.289 146.739C138.159 145.218 139.883 141.059 141.506 138.117L141.607 138.016C145.056 134.567 159.156 133.147 159.562 125.235C159.764 119.757 150.534 120.772 145.665 124.525C143.332 126.249 140.593 128.684 137.956 132.336C136.028 134.871 128.218 148.058 134.202 150.594C139.274 152.724 148.404 145.725 154.084 141.972C158.852 138.726 164.025 134.161 165.343 132.843C165.445 132.741 165.445 132.538 165.343 132.437C165.242 132.437 165.141 132.437 165.039 132.538C163.822 133.756 158.547 138.422 153.78 141.566C148.302 145.218 142.419 148.16 140.289 146.739ZM158.243 125.539C160.779 130.205 146.375 134.567 142.115 137.002L143.433 135.074C144.346 133.857 146.476 131.118 149.012 128.785C150.229 127.669 156.62 122.699 158.243 125.539Z" fill="url(#paint1_linear_1_3)"/>
<path d="M183.095 133.35C182.993 133.451 182.993 133.654 183.095 133.756C183.196 133.756 183.298 133.857 183.399 133.756C186.442 131.017 192.833 124.423 197.397 118.743C198.513 119.453 200.035 119.96 201.658 120.467C200.339 121.989 195.876 128.379 192.63 132.538C190.804 134.871 180.66 147.044 184.008 149.985C187.761 153.231 198.107 147.348 206.324 141.363C210.99 138.016 214.946 134.669 216.873 132.843C216.975 132.741 216.975 132.64 216.873 132.538C216.772 132.437 216.67 132.437 216.569 132.538C215.149 133.857 210.787 137.509 206.019 140.958C199.528 145.624 192.427 149.58 191.108 146.334C190.398 144.406 195.572 139.03 197.195 137.002C200.136 133.248 205.715 124.829 207.744 122.09C209.164 120.975 207.845 116.917 205.817 116.613C203.585 116.309 201.861 116.816 199.73 115.497C200.238 114.99 202.875 111.034 201.556 110.73C199.223 110.121 192.731 115.294 196.992 118.439C192.427 124.119 185.935 130.814 183.095 133.35ZM199.426 115.294C196.282 112.86 200.44 110.831 201.049 111.135C202.063 111.642 199.73 114.888 199.426 115.294Z" fill="url(#paint2_linear_1_3)"/>
<path d="M229.553 142.479C234.422 136.393 239.189 121.279 225.901 121.076C216.366 120.975 214.642 131.828 216.265 133.958C207.44 142.479 208.86 150.797 216.163 150.898C219.51 150.898 223.061 149.884 229.046 143.189C236.755 144.508 242.638 137.813 247.608 132.843C247.71 132.741 247.71 132.538 247.608 132.538C247.507 132.437 247.406 132.336 247.304 132.437C242.435 137.204 236.958 143.494 229.553 142.479ZM223.771 133.147C224.481 130.205 223.061 127.264 221.032 127.771C219.308 128.582 220.119 131.727 218.192 132.843C216.975 132.234 218.293 123.206 226.104 123.713C237.059 124.423 231.784 136.596 227.524 141.972C224.481 141.363 222.554 139.537 220.931 137.204C222.148 135.581 223.061 134.466 223.771 133.147ZM219.612 138.726C221.742 140.755 223.771 142.175 226.814 142.783C224.278 145.827 220.931 148.667 217.989 147.652C214.337 146.435 217.989 140.856 219.612 138.726Z" fill="url(#paint3_linear_1_3)"/>
<path d="M260.998 131.321C260.897 131.423 260.897 131.625 260.998 131.727C261.099 131.828 261.302 131.727 261.302 131.625C261.81 131.22 263.331 129.8 264.65 128.379C266.171 126.655 268.606 124.322 267.084 123.105C263.432 120.062 255.52 120.569 246.797 132.234C244.87 134.77 237.059 147.957 243.044 150.493C248.116 152.623 257.245 145.624 262.925 141.871C267.693 138.625 272.967 134.06 274.185 132.843C274.286 132.64 273.982 132.336 273.678 132.538C272.46 133.959 267.388 138.32 262.621 141.465C257.143 145.117 251.26 148.058 249.13 146.638C246.087 144.406 250.854 137.002 252.274 134.973C254.202 132.234 262.114 122.902 266.171 124.931C266.678 125.235 265.563 126.554 264.244 127.974C262.925 129.495 261.302 131.017 260.998 131.321Z" fill="url(#paint4_linear_1_3)"/>
<path d="M287.676 123.511C290.516 120.163 309.282 96.0213 315.774 99.5716C317.904 100.789 316.687 103.528 315.672 104.948C311.108 111.845 296.501 120.467 287.676 123.511ZM281.894 130.713C283.517 128.177 284.937 126.554 286.966 124.221C295.892 121.38 311.31 112.454 316.078 105.252C317.295 103.426 318.614 100.079 316.281 98.7601C299.848 90.0365 269.113 139.436 262.215 149.478C262.418 151.406 266.374 152.319 268.301 150.594C272.866 144.609 276.924 138.422 280.981 132.133C283.618 130.814 286.154 129.394 288.487 128.278C287.169 130.408 285.748 133.451 282.198 138.219C278.648 142.986 275.909 147.754 278.039 149.783C281.488 153.333 290.415 147.957 298.732 141.972C302.181 139.436 306.847 135.886 309.89 132.843C309.992 132.741 309.992 132.64 309.89 132.538C309.789 132.437 309.586 132.437 309.485 132.538C308.166 133.958 303.094 138.117 298.327 141.566C291.835 146.131 286.357 149.478 285.14 146.131C284.734 145.015 286.357 142.479 288.589 139.436C292.342 134.466 294.168 128.988 294.878 125.539C296.704 125.032 298.124 125.032 299.037 125.742C299.037 126.046 298.529 126.858 298.327 127.061C297.211 130.205 302.283 129.394 303.906 129.191C306.949 126.148 306.543 123.003 301.674 123.206C294.979 123.612 288.487 126.757 281.894 130.713Z" fill="url(#paint5_linear_1_3)"/>
<path d="M62.8558 20.1094L69.9334 12.9756L68.81 11.8522C60.946 3.98819 51.453 0.0561829 40.3311 0.0561829C29.1717 0.0561829 19.66 3.98819 11.796 11.8522C3.932 19.7162 0 29.2092 0 40.3311C0 51.4905 3.932 61.0022 11.796 68.8662C19.66 76.7302 29.1717 80.6622 40.3311 80.6622C51.453 80.6622 60.946 76.7302 68.81 68.8662L69.3155 68.4168V38.7583H44.9933V52.4641C46.1167 52.1271 47.184 51.6777 48.1951 51.116V41.9601H66.0576V67.0687C58.7928 74.0714 50.1049 77.5353 39.9941 77.4604C29.8457 77.3481 21.2141 73.7157 14.099 66.5632C6.83419 59.3358 3.20177 50.5918 3.20177 40.3311C3.20177 30.1079 6.83419 21.3639 14.099 14.0991C21.1017 7.09635 29.5836 3.48266 39.5447 3.25797C49.4683 3.07073 58.0813 6.32868 65.3836 13.0318L62.7997 15.5595C56.4336 9.75513 48.944 6.85294 40.3311 6.85294C32.4296 6.85294 25.4269 9.32447 19.323 14.2676C19.323 14.2676 19.3042 14.2676 19.2668 14.2676C19.1545 14.3799 19.0234 14.4923 18.8736 14.6046C18.7612 14.7169 18.6302 14.8293 18.4804 14.9416C18.4804 14.9791 18.4617 14.9978 18.4242 14.9978C12.5075 20.0907 8.8189 26.5129 7.35845 34.2646C5.97289 41.9039 7.07759 49.1313 10.6726 55.9468C10.7849 56.1715 10.8973 56.3774 11.0096 56.5647C11.1219 56.7519 11.253 56.9766 11.4028 57.2387C12.1517 58.5494 13.013 59.8039 13.9867 61.0022C13.9867 61.0397 14.0054 61.0958 14.0428 61.1707C14.1926 61.358 14.3612 61.5452 14.5484 61.7324C14.6233 61.8448 14.6982 61.9384 14.7731 62.0133C14.848 62.0882 14.9603 62.2193 15.1101 62.4065C21.7383 70.0084 30.1453 73.8093 40.3311 73.8093C47.2589 73.8093 53.5875 71.8433 59.317 67.9113L63.0243 65.2151V45.218H51.6216V52.5203C48.4385 55.4412 44.675 56.9017 40.3311 56.9017C35.7625 56.9017 31.8679 55.2914 28.6474 52.071C25.3895 48.8505 23.7605 44.9372 23.7605 40.3311C23.7605 35.7625 25.3895 31.868 28.6474 28.6475C31.8679 25.3895 35.7625 23.7605 40.3311 23.7605C44.9372 23.7605 48.8504 25.3895 52.0709 28.6475L53.1944 29.7709L60.3281 22.6371L59.2047 21.5137C53.9995 16.3085 47.7083 13.7059 40.3311 13.7059C33.8527 13.7059 28.1419 15.8029 23.1988 19.9971C23.1988 19.9596 23.1426 19.9971 23.0303 20.1094C22.7307 20.3715 22.4873 20.5962 22.3001 20.7835C22.1877 20.8584 22.0192 21.0082 21.7945 21.2328C21.4949 21.5324 21.4013 21.626 21.5137 21.5137C21.5137 21.5137 21.4949 21.5324 21.4575 21.5699C21.4575 21.6073 21.4388 21.626 21.4013 21.626C21.1766 21.8507 20.9332 22.1128 20.6711 22.4124C20.4838 22.5997 20.4464 22.6371 20.5588 22.5248C17.1885 26.2321 15.054 30.576 14.1552 35.5565C13.0318 41.5482 13.8931 47.2589 16.7391 52.6888L16.7953 52.8012C16.9451 53.1008 17.1136 53.4003 17.3008 53.6999C17.3757 53.8497 17.4319 53.962 17.4693 54.0369C17.6191 54.2616 17.7876 54.5238 17.9749 54.8233C18.0872 54.9731 18.1621 55.0855 18.1995 55.1604C18.237 55.1978 18.2744 55.254 18.3119 55.3289C18.3493 55.4038 18.3868 55.46 18.4242 55.4974C18.3868 55.4225 18.4991 55.5723 18.7613 55.9468C18.8736 56.0966 18.9298 56.1902 18.9298 56.2276C19.1545 56.5272 19.3979 56.8268 19.66 57.1264C19.66 57.1264 19.66 57.1451 19.66 57.1825C19.6975 57.1825 19.7162 57.1825 19.7162 57.1825C23.8354 62.238 29.0968 65.3649 35.5003 66.5632C37.148 66.8628 38.777 67.0125 40.3873 67.0125C45.8921 67.0125 50.91 65.4397 55.4412 62.2941L56.2276 61.7886V57.9128L53.6437 59.6541C48.3262 63.324 42.4843 64.5597 36.1182 63.3614C31.3249 62.5001 27.2244 60.3469 23.8167 56.9017C23.255 56.34 22.712 55.7595 22.1877 55.1604C22.1877 55.1229 22.1877 55.1042 22.1877 55.1042C21.963 54.8795 21.7383 54.5986 21.5136 54.2616C21.5136 54.2242 21.4762 54.168 21.4013 54.0931C21.2141 53.831 21.0456 53.5876 20.8958 53.3629C20.8583 53.288 20.8021 53.1944 20.7273 53.082C20.54 52.8199 20.3715 52.5765 20.2217 52.3518C20.2217 52.3143 20.1843 52.2394 20.1094 52.1271C19.9221 51.8275 19.7724 51.5467 19.66 51.2845C19.5851 51.1722 19.5664 51.1535 19.6038 51.2284C17.4693 47.1091 16.6268 42.7278 17.0761 38.0842C17.5255 33.4033 19.2294 29.2279 22.1877 25.558C22.4124 25.2959 22.6558 25.015 22.918 24.7154C22.918 24.7154 22.9741 24.6593 23.0865 24.5469C23.3112 24.3222 23.5171 24.1163 23.7044 23.929C23.7793 23.8167 23.9103 23.6856 24.0976 23.5358C24.2473 23.3861 24.3784 23.255 24.4908 23.1426C24.7155 22.9179 24.9401 22.712 25.1648 22.5247C25.2023 22.4873 25.221 22.4686 25.221 22.4686C25.8202 21.9818 26.438 21.5137 27.0747 21.0643C31.0441 18.3306 35.4629 16.9638 40.3311 16.9638C46.2104 16.9638 51.3407 18.8736 55.7221 22.6933L53.1382 25.2771C49.2436 21.9443 44.7312 20.3715 39.6009 20.5587C34.4331 20.7834 30.0143 22.712 26.3444 26.3444C22.4873 30.2015 20.5588 34.8637 20.5588 40.3311C20.5588 45.7985 22.4873 50.4794 26.3444 54.374C30.2015 58.2311 34.8637 60.1596 40.3311 60.1596C45.7985 60.1596 50.4794 58.2311 54.374 54.374L54.8233 53.8684V48.4198H59.8226V63.5861L57.4634 65.2712C51.3969 69.4279 44.7125 71.1505 37.4102 70.439C30.1828 69.7649 24.0227 66.8627 18.9298 61.7324C18.5553 61.3954 18.1996 61.0396 17.8625 60.6652C17.7876 60.5903 17.6753 60.4592 17.5255 60.272C17.4132 60.1222 17.3383 60.0285 17.3008 59.9911C17.3757 60.1034 17.3383 60.066 17.1885 59.8788C16.5519 59.1298 15.9527 58.3434 15.391 57.5196C13.8182 55.2353 12.5824 52.8012 11.6837 50.2173C11.6462 50.0675 11.59 49.8802 11.5152 49.6556C11.4777 49.5058 11.4403 49.3934 11.4028 49.3185C11.3654 49.2436 11.3279 49.15 11.2905 49.0377C11.253 48.813 11.1969 48.6257 11.122 48.476C10.4105 45.8172 10.0547 43.1022 10.0547 40.3311C10.0547 39.6196 10.0734 38.8894 10.1109 38.1404V38.0842C10.1483 37.9719 10.1671 37.8034 10.1671 37.5787C10.2045 37.354 10.2232 37.2042 10.2232 37.1293V37.0732C10.2981 36.3242 10.4105 35.594 10.5602 34.8825C11.0845 31.9241 12.0394 29.1343 13.425 26.5129C13.425 26.438 13.4437 26.3819 13.4812 26.3444C13.631 26.0448 13.8182 25.7078 14.0429 25.3333C14.1178 25.221 14.1927 25.0899 14.2676 24.9401C14.4174 24.7154 14.5671 24.4533 14.7169 24.1537C15.9152 22.2814 17.3195 20.5588 18.9298 18.986C19.2294 18.6864 19.5477 18.3681 19.8847 18.0311C20.1843 17.7315 20.4464 17.5068 20.6711 17.357C20.6711 17.3195 20.7273 17.2634 20.8396 17.1885C21.5886 16.5519 22.3562 15.9714 23.1426 15.4472C28.273 11.8896 34.0025 10.1109 40.3311 10.1109C48.6819 10.1109 55.797 13.0692 61.6762 18.986L62.8558 20.1094Z" fill="url(#paint6_linear_1_3)"/>
<path d="M143.743 3.25795H146.944V46.1729C146.944 54.7859 143.893 62.1443 137.789 68.2483C131.685 74.3897 124.307 77.4604 115.657 77.4604C107.044 77.4604 99.6856 74.3897 93.5816 68.2483C87.4402 62.1443 84.3695 54.7859 84.3695 46.1729V3.25795H87.6274V46.1729C87.6274 53.8871 90.3611 60.4966 95.8285 66.0014C101.333 71.4688 107.943 74.2025 115.657 74.2025C123.409 74.2025 130.037 71.4688 135.542 66.0014C141.009 60.4966 143.743 53.8871 143.743 46.1729L143.743 3.25795ZM140.541 46.1729C140.541 52.9884 138.107 58.8302 133.239 63.6984C128.37 68.5666 122.51 71.0007 115.657 71.0007C108.842 71.0007 103 68.5666 98.1315 63.6984C93.2633 58.8302 90.8292 52.9884 90.8292 46.1729V0H81.1677V46.1729C81.1677 55.6846 84.538 63.8108 91.2786 70.5513C98.0192 77.2919 106.145 80.6622 115.657 80.6622C125.206 80.6622 133.351 77.2919 140.092 70.5513C146.832 63.8108 150.202 55.6846 150.202 46.1729V0H140.541L140.541 46.1729ZM97.2889 3.25795H107.175V46.3414C107.175 48.7006 108.018 50.7228 109.703 52.408C111.351 54.0557 113.354 54.8795 115.713 54.8795C118.072 54.8795 120.095 54.0556 121.78 52.408C123.465 50.7228 124.307 48.7006 124.307 46.3414V3.25795H134.081V46.1729C134.081 51.2284 132.284 55.5536 128.689 59.1485C125.094 62.7435 120.75 64.541 115.657 64.541C110.602 64.541 106.276 62.7435 102.681 59.1485C99.0864 55.5536 97.2889 51.2284 97.2889 46.1729L97.2889 3.25795ZM115.657 67.7428C121.649 67.7428 126.741 65.627 130.936 61.3954C135.167 57.2013 137.283 52.1271 137.283 46.1729V1.52588e-05H121.049V46.3415C121.049 47.8019 120.525 49.0564 119.477 50.1049C118.466 51.1535 117.211 51.6777 115.713 51.6777C114.253 51.6777 112.998 51.1535 111.95 50.1049C110.939 49.0564 110.433 47.8019 110.433 46.3415V1.52588e-05H94.0871V46.1729C94.0871 52.1271 96.2029 57.2013 100.435 61.3954C104.629 65.627 109.703 67.7428 115.657 67.7428ZM115.657 61.2831C119.851 61.2831 123.427 59.8039 126.386 56.8455C129.344 53.8871 130.823 50.3296 130.823 46.1729V6.45973H127.622V46.1729C127.622 49.4309 126.461 52.2395 124.139 54.5987C121.78 56.9204 118.952 58.0813 115.657 58.0813C112.399 58.0813 109.59 56.9204 107.231 54.5987C104.91 52.2395 103.749 49.4309 103.749 46.1729V6.45973H100.547V46.1729C100.547 50.3296 102.026 53.8871 104.984 56.8455C107.943 59.8039 111.5 61.2831 115.657 61.2831Z" fill="url(#paint7_linear_1_3)"/>
<path d="M180.816 0V77.4604H164.639V3.25795H174.356V71.0007H171.098V6.45973H167.896V74.2025H177.558V1.52588e-05H161.437V80.6622H184.018V1.52588e-05L180.816 0Z" fill="url(#paint8_linear_1_3)"/>
<path d="M195.252 0V22.5809H216.204V80.6622H225.922V12.9194H204.913V9.71767H250.075V12.9194H229.123V80.6622H238.785V22.5809H259.793V0H195.252ZM198.454 3.25795H256.535V19.3792H235.583V77.4604H232.325V16.1212H253.333V6.45972H201.712V16.1212H222.664V77.4604H219.462V19.3792H198.454L198.454 3.25795Z" fill="url(#paint9_linear_1_3)"/>
<path d="M285.576 0.11235L284.845 1.68515L248.559 80.6622H252.097L265.41 51.7339H304L302.315 48.2513L299.843 42.5779L286.587 13.7058L272.319 44.881H293.72L286.699 28.4789L284.958 32.5233L287.036 37.5225L288.834 41.623H277.318L286.587 21.4575L296.922 43.9261L298.888 48.476H266.871L286.587 5.56097L319.559 77.5166H315.796L305.685 55.5536H267.601L256.423 80.6622H267.151L273.78 65.6644H298.888L305.966 80.6622H309.561L300.967 62.4626H271.701L265.017 77.5166H261.31L269.679 58.8115H303.607L313.717 80.6622H324.559L288.384 1.68515L287.598 0.11235H285.576Z" fill="url(#paint10_linear_1_3)"/>
<path d="M397.076 23.4797C397.076 17.0012 394.792 11.4777 390.223 6.9091C385.617 2.30304 380.093 0 373.652 0H335.793V3.25795H373.652C379.232 3.25795 383.988 5.22394 387.92 9.15594C391.889 13.1254 393.874 17.9 393.874 23.4797C393.874 28.947 391.796 33.6842 387.639 37.691C383.482 41.6979 378.558 43.7014 372.866 43.7014H370.282V44.6001L395.728 77.4604H383.314L361.07 50.4981H356.127V77.4604H338.995V9.94234H373.652C377.36 9.94234 380.543 11.2717 383.202 13.9305C385.823 16.5518 387.134 19.7349 387.134 23.4796C387.134 27.187 385.823 30.37 383.202 33.0288C380.543 35.6501 377.36 36.9608 373.652 36.9608H352.757V33.4781H373.652C376.386 33.4781 378.745 32.5045 380.73 30.5573C382.677 28.61 383.651 26.2508 383.651 23.4796C383.651 20.7085 382.677 18.3493 380.73 16.4021C378.745 14.4548 376.386 13.4811 373.652 13.4811H342.533V73.9216H352.757V46.7908H362.755L385.28 74.2025H389.493L364.272 43.589H349.555V70.7198H345.735V16.6829H373.652C375.525 16.6829 377.116 17.3382 378.427 18.6489C379.738 19.997 380.393 21.6073 380.393 23.4797C380.393 25.352 379.738 26.9436 378.427 28.2542C377.116 29.6023 375.525 30.2764 373.652 30.2764H349.555V40.2187H373.652C378.258 40.2187 382.19 38.571 385.448 35.2757C388.744 32.0177 390.391 28.0857 390.391 23.4796C390.391 18.8736 388.744 14.9229 385.448 11.6275C382.19 8.36953 378.258 6.74055 373.652 6.74055H335.793V80.6622H359.329V53.6999H359.553L381.797 80.6622H400.615V78.4715L376.012 46.7346C381.891 45.9482 386.871 43.3269 390.953 38.8706C395.035 34.4144 397.076 29.284 397.076 23.4797Z" fill="url(#paint11_linear_1_3)"/>
<defs>
<linearGradient id="paint0_linear_1_3" x1="1.14296e-05" y1="75.7537" x2="400.615" y2="75.7537" gradientUnits="userSpaceOnUse">
<stop stop-color="#8360C3"/>
<stop offset="1" stop-color="#2EBF91"/>
</linearGradient>
<linearGradient id="paint1_linear_1_3" x1="-2.39994e-05" y1="75.7536" x2="400.615" y2="75.7536" gradientUnits="userSpaceOnUse">
<stop stop-color="#8360C3"/>
<stop offset="1" stop-color="#2EBF91"/>
</linearGradient>
<linearGradient id="paint2_linear_1_3" x1="-0.000117638" y1="75.7536" x2="400.615" y2="75.7536" gradientUnits="userSpaceOnUse">
<stop stop-color="#8360C3"/>
<stop offset="1" stop-color="#2EBF91"/>
</linearGradient>
<linearGradient id="paint3_linear_1_3" x1="-1.60722e-05" y1="75.7536" x2="400.615" y2="75.7536" gradientUnits="userSpaceOnUse">
<stop stop-color="#8360C3"/>
<stop offset="1" stop-color="#2EBF91"/>
</linearGradient>
<linearGradient id="paint4_linear_1_3" x1="5.54351e-05" y1="75.7536" x2="400.615" y2="75.7536" gradientUnits="userSpaceOnUse">
<stop stop-color="#8360C3"/>
<stop offset="1" stop-color="#2EBF91"/>
</linearGradient>
<linearGradient id="paint5_linear_1_3" x1="-4.01392e-05" y1="75.7536" x2="400.615" y2="75.7536" gradientUnits="userSpaceOnUse">
<stop stop-color="#8360C3"/>
<stop offset="1" stop-color="#2EBF91"/>
</linearGradient>
<linearGradient id="paint6_linear_1_3" x1="0" y1="75.7536" x2="400.615" y2="75.7536" gradientUnits="userSpaceOnUse">
<stop stop-color="#8360C3"/>
<stop offset="1" stop-color="#2EBF91"/>
</linearGradient>
<linearGradient id="paint7_linear_1_3" x1="3.68089e-06" y1="75.7536" x2="400.615" y2="75.7536" gradientUnits="userSpaceOnUse">
<stop stop-color="#8360C3"/>
<stop offset="1" stop-color="#2EBF91"/>
</linearGradient>
<linearGradient id="paint8_linear_1_3" x1="2.87774e-05" y1="75.7536" x2="400.615" y2="75.7536" gradientUnits="userSpaceOnUse">
<stop stop-color="#8360C3"/>
<stop offset="1" stop-color="#2EBF91"/>
</linearGradient>
<linearGradient id="paint9_linear_1_3" x1="3.01341e-05" y1="75.7536" x2="400.615" y2="75.7536" gradientUnits="userSpaceOnUse">
<stop stop-color="#8360C3"/>
<stop offset="1" stop-color="#2EBF91"/>
</linearGradient>
<linearGradient id="paint10_linear_1_3" x1="-7.93566e-05" y1="75.7536" x2="400.615" y2="75.7536" gradientUnits="userSpaceOnUse">
<stop stop-color="#8360C3"/>
<stop offset="1" stop-color="#2EBF91"/>
</linearGradient>
<linearGradient id="paint11_linear_1_3" x1="7.88624e-06" y1="75.7536" x2="400.615" y2="75.7536" gradientUnits="userSpaceOnUse">
<stop stop-color="#8360C3"/>
<stop offset="1" stop-color="#2EBF91"/>
</linearGradient>
</defs>
</svg>
