<?xml version="1.0" encoding="UTF-8" standalone="no"?><!DOCTYPE svg PUBLIC "-//W3C//DTD SVG 1.1//EN" "http://www.w3.org/Graphics/SVG/1.1/DTD/svg11.dtd"><svg width="100%" height="100%" viewBox="0 0 155 222" version="1.1" xmlns="http://www.w3.org/2000/svg" xmlns:xlink="http://www.w3.org/1999/xlink" xml:space="preserve" xmlns:serif="http://www.serif.com/" style="fill-rule:evenodd;clip-rule:evenodd;stroke-linejoin:round;stroke-miterlimit:2;"><g><path d="M14.3,124.315c0.2,-0.2 0.5,-0.4 0.7,-0.7c18,-18 36,-36 54,-54c0.7,-0.7 0.9,-1.3 0.9,-2.2l0,-45.4c0,-0.4 0.2,-0.8 -0.2,-1.2c-0.4,0.1 -0.7,0.5 -1,0.8c-17.9,17.9 -35.9,35.8 -53.8,53.7c-0.7,0.7 -0.9,1.3 -0.9,2.2l0,45.5c0,0.5 -0.2,0.9 0.3,1.3Z" style="fill:#009880;fill-rule:nonzero;"/><path d="M138.5,123.115c0.4,0.4 0.7,0.8 1.2,1c0.3,-0.4 0.2,-0.7 0.2,-1l0,-45.7c0,-1 -0.4,-1.6 -1,-2.2c-5.2,-5.1 -10.3,-10.3 -15.4,-15.4c-12.7,-12.7 -25.4,-25.4 -38,-38c-0.4,-0.4 -0.7,-0.9 -1.4,-1.1l0,46.3c0,1.2 0.4,2.1 1.2,2.9c17.7,17.7 35.4,35.5 53.2,53.2Z" style="fill:#009880;fill-rule:nonzero;"/><path d="M138.8,143.515c-17.8,-17.8 -35.6,-35.5 -53.4,-53.3c-0.4,-0.4 -0.7,-0.8 -1.4,-1.1l0,46.7c0,0.9 0.3,1.6 1,2.2c15.8,15.7 31.5,31.5 47.3,47.2c0.4,0.4 0.6,0.9 1.2,1c0.3,-0.2 0.4,-0.6 0.6,-0.9c3.3,-7.2 5.3,-14.7 5.7,-22.7c0.3,-5.5 0.1,-10.9 0.2,-16.4c0,-1.1 -0.4,-1.9 -1.2,-2.7Z" style="fill:#009880;fill-rule:nonzero;"/><path d="M69.7,89.215c-0.5,0.1 -0.7,0.5 -1,0.8c-17.9,17.9 -35.9,35.9 -53.8,53.8c-0.7,0.7 -0.9,1.3 -0.9,2.2l0,12.6c0,7.2 1.1,14.3 3.5,21.1c0.8,2.3 1.7,4.6 2.9,6.8c1,-0.9 1.8,-1.8 2.7,-2.7c15.2,-15.2 30.4,-30.5 45.7,-45.7c0.7,-0.7 1.1,-1.3 1.1,-2.3l0,-45.2c0,-0.5 0.2,-1 -0.2,-1.4Z" style="fill:#009880;fill-rule:nonzero;"/><path d="M152.1,0.015l-67.8,0c0,0.5 0.2,0.6 0.4,0.8c18.3,18.4 36.6,36.7 54.9,55l0.2,0c0.2,0 -0.1,-0.2 0.2,0l0,-31.4c0,-1.4 0,-1.4 1.4,-1.4l11.9,0c0.5,0 0.8,-0.2 0.8,-0.7l0,-20.2c-0.1,-2.3 0.2,-2.1 -2,-2.1Z" style="fill:#009880;fill-rule:nonzero;"/><path d="M14,25.115l0,29.1c0,0.5 -0.1,1.1 0.2,1.8c18.6,-18.6 37.1,-37.1 55.6,-55.7c0,-0.1 -0.1,-0.2 -0.1,-0.3l-68.8,0c-0.7,-0.1 -0.9,0.3 -0.9,1l0,19.4c0,2.6 0,2.6 2.6,2.6l10.3,0c1.1,0 1.1,0 1.2,1.2c-0.1,0.2 -0.1,0.6 -0.1,0.9Z" style="fill:#009880;fill-rule:nonzero;"/><path d="M68.3,158.715c-10,10 -20,20 -30,30c-3.1,3.1 -6.2,6.1 -9.2,9.2c-0.8,0.8 -0.8,0.8 -0.1,1.7c0.1,0.2 0.3,0.3 0.4,0.5c10.4,11.7 23.3,18.6 38.8,20.9c1.7,0.2 1.7,0.2 1.7,-1.5l0,-61.9c-0.2,-0.1 -0.3,-0.2 -0.5,-0.3c-0.4,0.4 -0.7,1 -1.1,1.4Z" style="fill:#009880;fill-rule:nonzero;"/><path d="M124.3,197.315c-12.9,-12.9 -25.9,-25.9 -38.8,-38.8c-0.4,-0.4 -0.7,-0.8 -1.4,-1.1l0,62.8c0,0.5 0.2,0.8 0.7,0.7c0.3,0 0.5,0 0.8,-0.1c5.8,-0.8 11.4,-2.3 16.8,-4.7c8.6,-3.8 16,-9.3 22.2,-16.3c1,-1.2 1,-1.2 0,-2.3c-0.1,0 -0.2,-0.1 -0.3,-0.2Z" style="fill:#009880;fill-rule:nonzero;"/></g></svg>