<?xml version="1.0" encoding="utf-8"?>
<!-- Generator: Adobe Illustrator 25.0.0, SVG Export Plug-In . SVG Version: 6.00 Build 0)  -->
<svg version="1.1" id="Camada_1" xmlns="http://www.w3.org/2000/svg" xmlns:xlink="http://www.w3.org/1999/xlink" x="0px" y="0px"
	 viewBox="0 0 300 350.6" style="enable-background:new 0 0 300 350.6;" xml:space="preserve">
<style type="text/css">
	.st0{fill:#009880;}
</style>
<g>
	<g>
		<path class="st0" d="M87.7,141.8c0.2-0.2,0.5-0.4,0.7-0.7c18-18,36-36,54-54c0.7-0.7,0.9-1.3,0.9-2.2c0-15.1,0-30.2,0-45.4
			c0-0.4,0.2-0.8-0.2-1.2c-0.4,0.1-0.7,0.5-1,0.8C124.2,57,106.2,74.9,88.3,92.8c-0.7,0.7-0.9,1.3-0.9,2.2c0,15.2,0,30.3,0,45.5
			C87.4,141,87.2,141.4,87.7,141.8z"/>
		<path class="st0" d="M211.9,140.6c0.4,0.4,0.7,0.8,1.2,1c0.3-0.4,0.2-0.7,0.2-1c0-15.2,0-30.5,0-45.7c0-1-0.4-1.6-1-2.2
			c-5.2-5.1-10.3-10.3-15.4-15.4c-12.7-12.7-25.4-25.4-38-38c-0.4-0.4-0.7-0.9-1.4-1.1c0,0.7,0,1.2,0,1.7c0,14.9,0,29.7,0,44.6
			c0,1.2,0.4,2.1,1.2,2.9C176.4,105.1,194.1,122.9,211.9,140.6z"/>
		<path class="st0" d="M212.2,161c-17.8-17.8-35.6-35.5-53.4-53.3c-0.4-0.4-0.7-0.8-1.4-1.1c0,0.4,0,0.7,0,0.9c0,15.3,0,30.6,0,45.8
			c0,0.9,0.3,1.6,1,2.2c15.8,15.7,31.5,31.5,47.3,47.2c0.4,0.4,0.6,0.9,1.2,1c0.3-0.2,0.4-0.6,0.6-0.9c3.3-7.2,5.3-14.7,5.7-22.7
			c0.3-5.5,0.1-10.9,0.2-16.4C213.4,162.6,213,161.8,212.2,161z"/>
		<path class="st0" d="M143.1,106.7c-0.5,0.1-0.7,0.5-1,0.8c-17.9,17.9-35.9,35.9-53.8,53.8c-0.7,0.7-0.9,1.3-0.9,2.2
			c0,4.2,0,8.4,0,12.6c0,7.2,1.1,14.3,3.5,21.1c0.8,2.3,1.7,4.6,2.9,6.8c1-0.9,1.8-1.8,2.7-2.7c15.2-15.2,30.4-30.5,45.7-45.7
			c0.7-0.7,1.1-1.3,1.1-2.3c0-15.1,0-30.1,0-45.2C143.3,107.6,143.5,107.1,143.1,106.7z"/>
		<path class="st0" d="M225.5,17.5c-22.2,0-44.4,0-66.5,0c-0.4,0-0.8,0-1.3,0c0,0.5,0.2,0.6,0.4,0.8C176.4,36.7,194.7,55,213,73.3
			c0,0,0.1,0,0.2,0c0.2,0-0.1-0.2,0.2,0c0-0.6,0-1.2,0-1.8c0-9.9,0-19.7,0-29.6c0-1.4,0-1.4,1.4-1.4c3.6,0,7.2,0,10.8,0
			c0.4,0,0.7,0,1.1,0c0.5,0,0.8-0.2,0.8-0.7c0-0.4,0-0.7,0-1.1c0-6.4,0-12.7,0-19.1C227.4,17.3,227.7,17.5,225.5,17.5z"/>
		<path class="st0" d="M87.4,42.6c0,9.7,0,19.4,0,29.1c0,0.5-0.1,1.1,0.2,1.8c18.6-18.6,37.1-37.1,55.6-55.7c0-0.1-0.1-0.2-0.1-0.3
			c-0.5,0-1,0-1.5,0c-22.1,0-44.2,0-66.3,0c-0.3,0-0.6,0-1,0c-0.7-0.1-0.9,0.3-0.9,1c0,0.4,0,0.7,0,1.1c0,6.1,0,12.2,0,18.3
			c0,2.6,0,2.6,2.6,2.6c3.4,0,6.9,0,10.3,0c1.1,0,1.1,0,1.2,1.2C87.4,41.9,87.4,42.3,87.4,42.6z"/>
		<path class="st0" d="M141.7,176.2c-10,10-20,20-30,30c-3.1,3.1-6.2,6.1-9.2,9.2c-0.8,0.8-0.8,0.8-0.1,1.7c0.1,0.2,0.3,0.3,0.4,0.5
			c10.4,11.7,23.3,18.6,38.8,20.9c1.7,0.2,1.7,0.2,1.7-1.5c0-20.2,0-40.3,0-60.5c0-0.5,0-0.9,0-1.4c-0.2-0.1-0.3-0.2-0.5-0.3
			C142.4,175.2,142.1,175.8,141.7,176.2z"/>
		<path class="st0" d="M197.7,214.8c-12.9-12.9-25.9-25.9-38.8-38.8c-0.4-0.4-0.7-0.8-1.4-1.1c0,0.3,0,0.6,0,0.8
			c0,20.5,0,40.9,0,61.4c0,0.2,0,0.4,0,0.6c0,0.5,0.2,0.8,0.7,0.7c0.3,0,0.5,0,0.8-0.1c5.8-0.8,11.4-2.3,16.8-4.7
			c8.6-3.8,16-9.3,22.2-16.3c1-1.2,1-1.2,0-2.3C197.9,215,197.8,214.9,197.7,214.8z"/>
	</g>
	<g>
		<path class="st0" d="M141.5,295.4c-0.2-1.4-0.4-2.8-0.9-4.1c-1-2.9-3-4.7-5.9-5.5c-2.2-0.6-4.4-0.7-6.6-0.4
			c-4,0.5-7.2,2.4-9.5,5.8c-0.1,0.1-0.1,0.3-0.3,0.3c-0.1-0.1-0.1-0.3-0.2-0.4c-1.3-2.7-3.3-4.4-6.2-5.2c-2.5-0.7-5-0.7-7.5-0.2
			c-3.7,0.8-6.5,2.7-8.2,6.1c-0.1,0.1-0.1,0.3-0.3,0.3c-0.1-0.2,0-0.3,0-0.5c0-1.6,0-3.2,0-4.8c0-0.1,0-0.2,0-0.3
			c0-0.3-0.1-0.3-0.3-0.3c-0.1,0-0.2,0-0.3,0c-3,0-6,0-9.1,0c-0.8,0-0.7-0.1-0.7,0.7c0,10.5,0,21.1,0,31.6c0,0.1,0,0.2,0,0.3
			c0,0.3,0.1,0.4,0.4,0.4c0.1,0,0.2,0,0.3,0c3.4,0,6.7,0,10.1,0c0.7,0,0.6,0.1,0.6-0.7c0-4.2,0-8.4,0-12.7c0-1.3,0-2.5,0.2-3.8
			c0.2-1.4,0.5-2.8,1.1-4c1-2,2.7-3.1,5-3.2c1.8,0,3.2,0.8,4,2.5c0.1,0.3,0.2,0.5,0.3,0.8c0.3,1,0.4,2.1,0.4,3.2
			c0,5.6,0,11.3,0,16.9c0,0.1,0,0.3,0,0.4c0,0.3,0.1,0.4,0.4,0.4c0.1,0,0.2,0,0.3,0c3.4,0,6.7,0,10.1,0c0.7,0,0.6,0.1,0.6-0.7
			c0-4.2,0-8.3,0-12.5c0-1.1,0-2.1,0.1-3.1c0.1-1.4,0.4-2.7,0.9-4c1.1-2.7,3.1-4.1,5.9-3.9c0.9,0.1,1.7,0.4,2.4,1.1
			c0.6,0.6,1,1.4,1.2,2.2c0.3,1,0.4,2.1,0.4,3.1c0,2.3,0,4.5,0,6.8c0,3.5,0,7,0,10.6c0,0.5,0,0.5,0.5,0.5c0.1,0,0.1,0,0.2,0
			c3.4,0,6.7,0,10.1,0c0.8,0,0.7,0.1,0.7-0.7c0-6,0-11.9,0-17.9C141.7,298.8,141.7,297.1,141.5,295.4z"/>
		<path class="st0" d="M41.7,297.6c-1.2-1.5-2.7-2.6-4.5-3.4c-1.7-0.8-3.4-1.4-5.2-1.9c-1.7-0.5-3.4-0.9-5.1-1.5
			c-0.9-0.3-1.8-0.7-2.5-1.3c-1.8-1.4-1.5-4.2,0.2-5.3c0.5-0.3,1.1-0.6,1.7-0.8c1.1-0.3,2.2-0.4,3.4-0.5c2.6-0.1,5.2,0.1,7.8,0.8
			c1.1,0.3,2.2,0.7,3.3,1.2c0.1-0.3,0.1-0.6,0.2-0.8c0.1-1.6,0.3-3.3,0.4-4.9c0.1-1,0.2-2,0.3-3c0-0.3-0.1-0.5-0.4-0.5
			c-0.5-0.1-1.1-0.3-1.6-0.4c-3.5-0.8-7.1-1.2-10.7-1c-2.2,0.1-4.3,0.3-6.5,0.8c-2.2,0.5-4.3,1.3-6.2,2.6c-2.5,1.6-4.2,3.9-4.9,6.8
			c-0.6,2.3-0.5,4.7,0,7c0.6,2.3,1.8,4.2,3.7,5.7c1.1,0.9,2.3,1.5,3.6,2.1c1.9,0.8,3.9,1.4,5.9,2c1.4,0.4,2.7,0.8,4,1.4
			c0.9,0.4,1.6,0.9,2.3,1.6c1.4,1.5,1.5,4.8-1.2,6c-0.7,0.3-1.5,0.5-2.3,0.7c-2,0.3-4,0.2-6,0c-3-0.3-5.9-1.1-8.6-2.5
			c-0.1-0.1-0.2-0.2-0.4-0.1c-0.1,0.7-0.1,1.4-0.2,2.1c-0.2,1.6-0.3,3.3-0.5,4.9c-0.1,0.8-0.2,1.5-0.2,2.3c0,0.3,0,0.4,0.3,0.5
			c0.1,0,0.1,0,0.2,0.1c3.2,0.9,6.5,1.4,9.8,1.6c3.1,0.2,6.3,0.1,9.4-0.4c2.2-0.4,4.3-1,6.3-2.1c2.8-1.5,4.8-3.7,5.8-6.7
			c0.9-2.6,1-5.3,0.6-8C43.6,300.6,42.9,299,41.7,297.6z"/>
		<path class="st0" d="M83,286c-3.6,0-7.2,0-10.8,0c-0.3,0-0.4,0.1-0.5,0.3c-0.5,1.5-0.9,2.9-1.4,4.4c-1.7,5.4-3.4,10.8-5.1,16.3
			c0,0.1,0,0.3-0.2,0.4c-0.1-0.1-0.2-0.3-0.2-0.5c-2.2-6.8-4.5-13.6-6.7-20.5c-0.2-0.5-0.2-0.5-0.7-0.5c-3.7,0-7.5,0-11.2,0
			c-0.1,0-0.3,0-0.5,0.1c0.1,0.2,0.1,0.3,0.2,0.5c3.3,8.2,6.5,16.5,9.8,24.7c1.1,2.7,2.1,5.4,3.2,8.1c0.1,0.2,0.2,0.4,0.1,0.6
			c-0.7,2.1-1.9,3.5-4.1,4.1c-1.3,0.4-2.7,0.2-4,0c-0.7-0.1-1.4-0.3-2.1-0.5c0,0.4-0.1,0.7-0.1,1.1c-0.2,2.4-0.4,4.7-0.6,7.1
			c0,0.5,0,0.5,0.4,0.6c2.6,0.5,5.2,0.8,7.8,0.6c1.4-0.1,2.8-0.3,4.1-0.8c2.5-0.9,4.4-2.6,6-4.8c1.3-1.9,2.3-3.9,3.1-6
			c2.8-7.1,5.6-14.3,8.4-21.4c1.7-4.4,3.5-8.9,5.2-13.3c0.1-0.2,0.2-0.4,0.2-0.6C83.1,286.1,83.1,286,83,286z"/>
		<path class="st0" d="M251.5,285.6c-1.4-0.3-2.8-0.4-4.3-0.3c-2.2,0.1-4.1,0.8-5.8,2.3c-1.2,1.1-2.1,2.4-2.9,3.9
			c-0.1,0.2-0.1,0.4-0.3,0.6c-0.1-0.2-0.1-0.4-0.1-0.6c0-1.6,0-3.2,0-4.8c0-0.1,0-0.2,0-0.3c0-0.3-0.1-0.4-0.3-0.4
			c-0.1,0-0.2,0-0.3,0c-3,0-6,0-9,0c-0.8,0-0.7-0.1-0.7,0.7c0,10.5,0,21,0,31.5c0,0.1,0,0.3,0,0.4c0,0.3,0.1,0.4,0.4,0.4
			c0.1,0,0.1,0,0.2,0c3.4,0,6.8,0,10.2,0c0.7,0,0.6,0,0.6-0.6c0-4.5,0-9,0-13.4c0-0.4,0-0.8,0-1.3c0.1-1.5,0.4-3,1-4.3
			c1-2.3,2.7-3.9,5.2-4.4c1.5-0.3,3-0.2,4.5-0.1c0.5,0,0.9,0.2,1.4,0.2c0.1-1.4,0.2-2.7,0.3-4c0.1-1.7,0.2-3.3,0.3-5
			C251.9,285.7,251.9,285.7,251.5,285.6z"/>
		<path class="st0" d="M288.9,310.5c0-8,0-15.9,0-23.9c0-0.5,0.1-0.6-0.5-0.6c-3.1,0-6.2,0-9.2,0c-0.5,0-0.5,0-0.5,0.5
			c0,1.6,0,3.2,0,4.8c0,0.2,0,0.4-0.1,0.6c-0.2-0.1-0.2-0.2-0.3-0.3c-0.5-0.7-1-1.4-1.6-2.1c-2.1-2.3-4.6-3.7-7.7-4.1
			c-1.8-0.2-3.7-0.1-5.5,0.2c-3.1,0.6-5.7,2.1-7.7,4.7c-1.2,1.5-2,3.2-2.5,5c-0.9,3.2-1.2,6.4-0.8,9.7c0.2,2,0.7,3.8,1.5,5.6
			c1.5,3.3,3.8,5.7,7.1,7.2c2.4,1,5,1.3,7.6,1.1c3.7-0.4,6.7-2,9-5c0.1-0.2,0.3-0.4,0.4-0.5c0.1,0,0.1,0.1,0.1,0.1
			c0,1.4,0,2.8-0.2,4.1c-0.2,0.9-0.5,1.9-0.9,2.7c-1.2,2.2-3,3.4-5.4,3.9c-2.8,0.7-5.7,0.5-8.5,0c-2-0.4-3.8-1.1-5.7-2
			c-0.2-0.1-0.4-0.2-0.6-0.2c0,0.1,0,0.1,0,0.2c-0.2,2.8-0.4,5.5-0.5,8.3c0,0.5,0,0.5,0.5,0.7c3.5,1.2,7,1.8,10.7,1.9
			c2.1,0.1,4.1,0,6.2-0.2c1.9-0.2,3.8-0.5,5.6-1.1c4.1-1.4,7-4,8.4-8.2c0.8-2.4,1.1-5,1.2-7.5C288.9,314.2,288.9,312.4,288.9,310.5z
			 M276.1,307.5c-1.2,1.7-2.9,2.6-5,2.7c-2.6,0.2-4.5-1-5.8-3.3c-0.9-1.5-1.1-3.1-1.1-5.4c0-1.1,0.3-2.7,1.1-4.3
			c0.8-1.6,2-2.7,3.8-3.1c2.9-0.7,6.5,0.3,8,3.9C278.5,301.4,278.2,304.6,276.1,307.5z"/>
		<path class="st0" d="M179.9,290.4c-1.8-2.3-4.1-4-7-4.7c-2.1-0.6-4.3-0.5-6.4-0.2c-3.2,0.5-5.8,1.9-7.9,4.3
			c-0.1,0.1-0.2,0.3-0.5,0.4c0-0.3,0-0.5,0-0.8c0-5.8,0-11.6,0-17.4c0-0.5,0-0.5-0.5-0.5c0,0,0,0-0.1,0c-3.4,0-6.8,0-10.2,0
			c-0.1,0-0.2,0-0.3,0c-0.2,0-0.3,0.1-0.3,0.3c0,0.1,0,0.2,0,0.3c0,15.4,0,30.9,0,46.3c0,0.1,0,0.2,0,0.3c0,0.2,0.1,0.3,0.3,0.3
			c0.1,0,0.2,0,0.3,0c3.2,0,6.3,0,9.5,0c0.5,0,0.5,0,0.5-0.6c0-1.6,0-3.2,0-4.9c0-0.1-0.1-0.3,0.1-0.4c0,0.1,0.1,0.1,0.1,0.2
			c0.9,2,2.5,3.5,4.4,4.6c2.6,1.5,5.3,2,8.2,1.8c1.9-0.2,3.7-0.6,5.4-1.5c3.1-1.6,5.2-4.1,6.5-7.3c1.8-4.2,2.2-8.5,1.3-12.9
			C182.8,295.2,181.7,292.7,179.9,290.4z M170.8,307.4c-0.9,1.9-2.4,3.2-4.6,3.5c-2.6,0.4-4.7-0.5-6.3-2.6c-1.3-1.7-1.8-3.7-1.8-5.8
			c0-1.9,0.4-3.8,1.4-5.4c2.3-3.7,6.5-3.8,9-2.2c1.4,0.9,2.4,2.2,2.9,3.8C172.3,301.7,172.1,304.6,170.8,307.4z"/>
		<path class="st0" d="M214.2,287.1c-3-1.3-6.1-1.8-9.3-1.8c-0.8,0-1.7,0-2.5,0.1c-2.4,0.2-4.7,0.7-6.8,1.7c-4.6,2-7.7,5.4-9.2,10.2
			c-0.8,2.7-0.9,5.5-0.5,8.3c0.4,2.6,1.3,5,2.9,7.1c2.1,2.8,4.8,4.7,8.1,5.8c3.1,1.1,6.3,1.5,9.6,1.3c2.1-0.1,4.1-0.5,6.1-1.1
			c3.2-1.1,6-2.8,8.1-5.5c1.8-2.3,2.8-4.8,3.2-7.7c0.4-2.7,0.3-5.4-0.5-8.1C222,292.4,218.8,289.1,214.2,287.1z M211.3,307.8
			c-1,2.1-2.6,3.5-4.9,3.9c-2.1,0.4-4.1,0.1-5.9-1.3c-1-0.8-1.7-1.9-2.2-3.1c-0.7-1.8-0.9-3.7-0.8-5.6c0.1-1.3,0.3-2.5,0.7-3.7
			c0.6-1.7,1.6-3.1,3.2-4c3.7-2.1,8.3-0.5,10,3.4c0.7,1.6,0.9,3.3,0.9,5.1C212.3,304.4,212,306.2,211.3,307.8z"/>
	</g>
</g>
</svg>
