<?xml version="1.0" encoding="utf-8"?>
<!-- Generator: Adobe Illustrator 25.0.0, SVG Export Plug-In . SVG Version: 6.00 Build 0)  -->
<svg version="1.1" id="Camada_1" xmlns="http://www.w3.org/2000/svg" xmlns:xlink="http://www.w3.org/1999/xlink" x="0px" y="0px"
	 viewBox="0 0 1084.1 261.8" style="enable-background:new 0 0 1084.1 261.8;" xml:space="preserve">
<style type="text/css">
	.st0{fill:#009880;}
</style>
<g>
	<g>
		<path class="st0" d="M907,144.7c0.2-0.2,0.5-0.4,0.7-0.7c18.1-18.1,36.1-36.1,54.2-54.2c0.7-0.7,0.9-1.3,0.9-2.2
			c0-15.1,0-30.3,0-45.5c0-0.4,0.2-0.8-0.2-1.2c-0.4,0.1-0.7,0.5-1,0.8c-18,18-36,35.9-54,53.9c-0.7,0.7-0.9,1.3-0.9,2.2
			c0,15.2,0,30.4,0,45.6C906.7,143.9,906.5,144.3,907,144.7z"/>
		<path class="st0" d="M1031.6,143.5c0.4,0.4,0.7,0.8,1.2,1c0.3-0.4,0.2-0.7,0.2-1c0-15.2,0-30.6,0-45.8c0-1-0.4-1.6-1-2.2
			c-5.2-5.1-10.3-10.3-15.4-15.4c-12.7-12.7-25.5-25.5-38.1-38.1c-0.4-0.4-0.7-0.9-1.4-1.1c0,0.7,0,1.2,0,1.7c0,14.9,0,29.8,0,44.7
			c0,1.2,0.4,2.1,1.2,2.9C996,107.9,1013.7,125.7,1031.6,143.5z"/>
		<path class="st0" d="M1031.9,163.9c-17.9-17.9-35.7-35.6-53.6-53.5c-0.4-0.4-0.7-0.8-1.4-1.1c0,0.4,0,0.7,0,0.9
			c0,15.3,0,30.7,0,45.9c0,0.9,0.3,1.6,1,2.2c15.8,15.7,31.6,31.6,47.4,47.3c0.4,0.4,0.6,0.9,1.2,1c0.3-0.2,0.4-0.6,0.6-0.9
			c3.3-7.2,5.3-14.7,5.7-22.8c0.3-5.5,0.1-10.9,0.2-16.4C1033.1,165.5,1032.7,164.7,1031.9,163.9z"/>
		<path class="st0" d="M962.6,109.5c-0.5,0.1-0.7,0.5-1,0.8c-18,18-36,36-54,54c-0.7,0.7-0.9,1.3-0.9,2.2c0,4.2,0,8.4,0,12.6
			c0,7.2,1.1,14.3,3.5,21.2c0.8,2.3,1.7,4.6,2.9,6.8c1-0.9,1.8-1.8,2.7-2.7c15.2-15.2,30.5-30.6,45.8-45.8c0.7-0.7,1.1-1.3,1.1-2.3
			c0-15.1,0-30.2,0-45.3C962.8,110.4,963,109.9,962.6,109.5z"/>
		<path class="st0" d="M1045.2,20c-22.3,0-44.5,0-66.7,0c-0.4,0-0.8,0-1.3,0c0,0.5,0.2,0.6,0.4,0.8c18.4,18.5,36.7,36.8,55.1,55.2
			c0,0,0.1,0,0.2,0c0.2,0-0.1-0.2,0.2,0c0-0.6,0-1.2,0-1.8c0-9.9,0-19.8,0-29.7c0-1.4,0-1.4,1.4-1.4c3.6,0,7.2,0,10.8,0
			c0.4,0,0.7,0,1.1,0c0.5,0,0.8-0.2,0.8-0.7c0-0.4,0-0.7,0-1.1c0-6.4,0-12.7,0-19.2C1047.1,19.8,1047.4,20,1045.2,20z"/>
		<path class="st0" d="M906.7,45.2c0,9.7,0,19.5,0,29.2c0,0.5-0.1,1.1,0.2,1.8c18.7-18.7,37.2-37.2,55.8-55.9c0-0.1-0.1-0.2-0.1-0.3
			c-0.5,0-1,0-1.5,0c-22.2,0-44.3,0-66.5,0c-0.3,0-0.6,0-1,0c-0.7-0.1-0.9,0.3-0.9,1c0,0.4,0,0.7,0,1.1c0,6.1,0,12.2,0,18.4
			c0,2.6,0,2.6,2.6,2.6c3.4,0,6.9,0,10.3,0c1.1,0,1.1,0,1.2,1.2C906.7,44.5,906.7,44.9,906.7,45.2z"/>
		<path class="st0" d="M961.2,179.2c-10,10-20.1,20.1-30.1,30.1c-3.1,3.1-6.2,6.1-9.2,9.2c-0.8,0.8-0.8,0.8-0.1,1.7
			c0.1,0.2,0.3,0.3,0.4,0.5c10.4,11.7,23.4,18.7,38.9,21c1.7,0.2,1.7,0.2,1.7-1.5c0-20.3,0-40.4,0-60.7c0-0.5,0-0.9,0-1.4
			c-0.2-0.1-0.3-0.2-0.5-0.3C961.9,178.2,961.6,178.8,961.2,179.2z"/>
		<path class="st0" d="M1017.3,217.9c-12.9-12.9-26-26-38.9-38.9c-0.4-0.4-0.7-0.8-1.4-1.1c0,0.3,0,0.6,0,0.8c0,20.6,0,41,0,61.6
			c0,0.2,0,0.4,0,0.6c0,0.5,0.2,0.8,0.7,0.7c0.3,0,0.5,0,0.8-0.1c5.8-0.8,11.4-2.3,16.8-4.7c8.6-3.8,16-9.3,22.3-16.3
			c1-1.2,1-1.2,0-2.3C1017.5,218.1,1017.4,218,1017.3,217.9z"/>
	</g>
	<g>
		<path class="st0" d="M414.1,110.9c-0.6-4-1.2-8.1-2.6-11.8c-2.9-8.4-8.7-13.6-17.1-15.9c-6.4-1.7-12.7-2-19.1-1.2
			c-11.6,1.4-20.8,6.9-27.5,16.8c-0.3,0.3-0.3,0.9-0.9,0.9c-0.3-0.3-0.3-0.9-0.6-1.2c-3.8-7.8-9.5-12.7-17.9-15
			c-7.2-2-14.5-2-21.7-0.6c-10.7,2.3-18.8,7.8-23.7,17.6c-0.3,0.3-0.3,0.9-0.9,0.9c-0.3-0.6,0-0.9,0-1.4c0-4.6,0-9.2,0-13.9
			c0-0.3,0-0.6,0-0.9c0-0.9-0.3-0.9-0.9-0.9c-0.3,0-0.6,0-0.9,0c-8.7,0-17.3,0-26.3,0c-2.3,0-2-0.3-2,2c0,30.3,0,61,0,91.3
			c0,0.3,0,0.6,0,0.9c0,0.9,0.3,1.2,1.2,1.2c0.3,0,0.6,0,0.9,0c9.8,0,19.4,0,29.2,0c2,0,1.7,0.3,1.7-2c0-12.1,0-24.3,0-36.7
			c0-3.8,0-7.2,0.6-11c0.6-4,1.4-8.1,3.2-11.6c2.9-5.8,7.8-9,14.5-9.2c5.2,0,9.2,2.3,11.6,7.2c0.3,0.9,0.6,1.4,0.9,2.3
			c0.9,2.9,1.2,6.1,1.2,9.2c0,16.2,0,32.7,0,48.8c0,0.3,0,0.9,0,1.2c0,0.9,0.3,1.2,1.2,1.2c0.3,0,0.6,0,0.9,0c9.8,0,19.4,0,29.2,0
			c2,0,1.7,0.3,1.7-2c0-12.1,0-24,0-36.1c0-3.2,0-6.1,0.3-9c0.3-4,1.2-7.8,2.6-11.6c3.2-7.8,9-11.8,17.1-11.3
			c2.6,0.3,4.9,1.2,6.9,3.2c1.7,1.7,2.9,4,3.5,6.4c0.9,2.9,1.2,6.1,1.2,9c0,6.6,0,13,0,19.7c0,10.1,0,20.2,0,30.6
			c0,1.4,0,1.4,1.4,1.4c0.3,0,0.3,0,0.6,0c9.8,0,19.4,0,29.2,0c2.3,0,2,0.3,2-2c0-17.3,0-34.4,0-51.7
			C414.7,120.7,414.7,115.8,414.1,110.9z"/>
		<path class="st0" d="M125.7,117.2c-3.5-4.3-7.8-7.5-13-9.8c-4.9-2.3-9.8-4-15-5.5c-4.9-1.4-9.8-2.6-14.7-4.3
			c-2.6-0.9-5.2-2-7.2-3.8c-5.2-4-4.3-12.1,0.6-15.3c1.4-0.9,3.2-1.7,4.9-2.3c3.2-0.9,6.4-1.2,9.8-1.4c7.5-0.3,15,0.3,22.5,2.3
			c3.2,0.9,6.4,2,9.5,3.5c0.3-0.9,0.3-1.7,0.6-2.3c0.3-4.6,0.9-9.5,1.2-14.2c0.3-2.9,0.6-5.8,0.9-8.7c0-0.9-0.3-1.4-1.2-1.4
			c-1.4-0.3-3.2-0.9-4.6-1.2c-10.1-2.3-20.5-3.5-30.9-2.9c-6.4,0.3-12.4,0.9-18.8,2.3S57.7,56,52.2,59.7C45,64.4,40.1,71,38.1,79.4
			c-1.7,6.6-1.4,13.6,0,20.2c1.7,6.6,5.2,12.1,10.7,16.5c3.2,2.6,6.6,4.3,10.4,6.1c5.5,2.3,11.3,4,17.1,5.8c4,1.2,7.8,2.3,11.6,4
			c2.6,1.2,4.6,2.6,6.6,4.6c4,4.3,4.3,13.9-3.5,17.3c-2,0.9-4.3,1.4-6.6,2c-5.8,0.9-11.6,0.6-17.3,0c-8.7-0.9-17.1-3.2-24.9-7.2
			c-0.3-0.3-0.6-0.6-1.2-0.3c-0.3,2-0.3,4-0.6,6.1c-0.6,4.6-0.9,9.5-1.4,14.2c-0.3,2.3-0.6,4.3-0.6,6.6c0,0.9,0,1.2,0.9,1.4
			c0.3,0,0.3,0,0.6,0.3c9.2,2.6,18.8,4,28.3,4.6c9,0.6,18.2,0.3,27.2-1.2c6.4-1.2,12.4-2.9,18.2-6.1c8.1-4.3,13.9-10.7,16.8-19.4
			c2.6-7.5,2.9-15.3,1.7-23.1C131.1,125.9,129.1,121.3,125.7,117.2z"/>
		<path class="st0" d="M245,83.7c-10.4,0-20.8,0-31.2,0c-0.9,0-1.2,0.3-1.4,0.9c-1.4,4.3-2.6,8.4-4,12.7
			c-4.9,15.6-9.8,31.2-14.7,47.1c0,0.3,0,0.9-0.6,1.2c-0.3-0.3-0.6-0.9-0.6-1.4c-6.4-19.7-13-39.3-19.4-59.2c-0.6-1.4-0.6-1.4-2-1.4
			c-10.7,0-21.7,0-32.4,0c-0.3,0-0.9,0-1.4,0.3c0.3,0.6,0.3,0.9,0.6,1.4c9.5,23.7,18.8,47.7,28.3,71.4c3.2,7.8,6.1,15.6,9.2,23.4
			c0.3,0.6,0.6,1.2,0.3,1.7c-2,6.1-5.5,10.1-11.8,11.8c-3.8,1.2-7.8,0.6-11.6,0c-2-0.3-4-0.9-6.1-1.4c0,1.2-0.3,2-0.3,3.2
			c-0.6,6.9-1.2,13.6-1.7,20.5c0,1.4,0,1.4,1.2,1.7c7.5,1.4,15,2.3,22.5,1.7c4-0.3,8.1-0.9,11.8-2.3c7.2-2.6,12.7-7.5,17.3-13.9
			c3.8-5.5,6.6-11.3,9-17.3c8.1-20.5,16.2-41.3,24.3-61.8c4.9-12.7,10.1-25.7,15-38.4c0.3-0.6,0.6-1.2,0.6-1.7
			C245.3,84,245.3,83.7,245,83.7z"/>
		<path class="st0" d="M732,82.6c-4-0.9-8.1-1.2-12.4-0.9c-6.4,0.3-11.8,2.3-16.8,6.6c-3.5,3.2-6.1,6.9-8.4,11.3
			c-0.3,0.6-0.3,1.2-0.9,1.7c-0.3-0.6-0.3-1.2-0.3-1.7c0-4.6,0-9.2,0-13.9c0-0.3,0-0.6,0-0.9c0-0.9-0.3-1.2-0.9-1.2
			c-0.3,0-0.6,0-0.9,0c-8.7,0-17.3,0-26,0c-2.3,0-2-0.3-2,2c0,30.3,0,60.7,0,91c0,0.3,0,0.9,0,1.2c0,0.9,0.3,1.2,1.2,1.2
			c0.3,0,0.3,0,0.6,0c9.8,0,19.7,0,29.5,0c2,0,1.7,0,1.7-1.7c0-13,0-26,0-38.7c0-1.2,0-2.3,0-3.8c0.3-4.3,1.2-8.7,2.9-12.4
			c2.9-6.6,7.8-11.3,15-12.7c4.3-0.9,8.7-0.6,13-0.3c1.4,0,2.6,0.6,4,0.6c0.3-4,0.6-7.8,0.9-11.6c0.3-4.9,0.6-9.5,0.9-14.5
			C733.2,82.8,733.2,82.8,732,82.6z"/>
		<path class="st0" d="M840.1,154.5c0-23.1,0-46,0-69.1c0-1.4,0.3-1.7-1.4-1.7c-9,0-17.9,0-26.6,0c-1.4,0-1.4,0-1.4,1.4
			c0,4.6,0,9.2,0,13.9c0,0.6,0,1.2-0.3,1.7c-0.6-0.3-0.6-0.6-0.9-0.9c-1.4-2-2.9-4-4.6-6.1c-6.1-6.6-13.3-10.7-22.3-11.8
			c-5.2-0.6-10.7-0.3-15.9,0.6c-9,1.7-16.5,6.1-22.3,13.6c-3.5,4.3-5.8,9.2-7.2,14.5c-2.6,9.2-3.5,18.5-2.3,28
			c0.6,5.8,2,11,4.3,16.2c4.3,9.5,11,16.5,20.5,20.8c6.9,2.9,14.5,3.8,22,3.2c10.7-1.2,19.4-5.8,26-14.5c0.3-0.6,0.9-1.2,1.2-1.4
			c0.3,0,0.3,0.3,0.3,0.3c0,4,0,8.1-0.6,11.8c-0.6,2.6-1.4,5.5-2.6,7.8c-3.5,6.4-8.7,9.8-15.6,11.3c-8.1,2-16.5,1.4-24.6,0
			c-5.8-1.2-11-3.2-16.5-5.8c-0.6-0.3-1.2-0.6-1.7-0.6c0,0.3,0,0.3,0,0.6c-0.6,8.1-1.2,15.9-1.4,24c0,1.4,0,1.4,1.4,2
			c10.1,3.5,20.2,5.2,30.9,5.5c6.1,0.3,11.8,0,17.9-0.6c5.5-0.6,11-1.4,16.2-3.2c11.8-4,20.2-11.6,24.3-23.7
			c2.3-6.9,3.2-14.5,3.5-21.7C840.1,165.2,840.1,160,840.1,154.5z M803.1,145.9c-3.5,4.9-8.4,7.5-14.5,7.8c-7.5,0.6-13-2.9-16.8-9.5
			c-2.6-4.3-3.2-9-3.2-15.6c0-3.2,0.9-7.8,3.2-12.4c2.3-4.6,5.8-7.8,11-9c8.4-2,18.8,0.9,23.1,11.3
			C810,128.2,809.2,137.5,803.1,145.9z"/>
		<path class="st0" d="M525.1,96.4c-5.2-6.6-11.8-11.6-20.2-13.6c-6.1-1.7-12.4-1.4-18.5-0.6c-9.2,1.4-16.8,5.5-22.8,12.4
			c-0.3,0.3-0.6,0.9-1.4,1.2c0-0.9,0-1.4,0-2.3c0-16.8,0-33.5,0-50.3c0-1.4,0-1.4-1.4-1.4c0,0,0,0-0.3,0c-9.8,0-19.7,0-29.5,0
			c-0.3,0-0.6,0-0.9,0c-0.6,0-0.9,0.3-0.9,0.9c0,0.3,0,0.6,0,0.9c0,44.5,0,89.3,0,133.8c0,0.3,0,0.6,0,0.9c0,0.6,0.3,0.9,0.9,0.9
			c0.3,0,0.6,0,0.9,0c9.2,0,18.2,0,27.5,0c1.4,0,1.4,0,1.4-1.7c0-4.6,0-9.2,0-14.2c0-0.3-0.3-0.9,0.3-1.2c0,0.3,0.3,0.3,0.3,0.6
			c2.6,5.8,7.2,10.1,12.7,13.3c7.5,4.3,15.3,5.8,23.7,5.2c5.5-0.6,10.7-1.7,15.6-4.3c9-4.6,15-11.8,18.8-21.1
			c5.2-12.1,6.4-24.6,3.8-37.3C533.5,110.3,530.3,103.1,525.1,96.4z M498.8,145.6c-2.6,5.5-6.9,9.2-13.3,10.1
			c-7.5,1.2-13.6-1.4-18.2-7.5c-3.8-4.9-5.2-10.7-5.2-16.8c0-5.5,1.2-11,4-15.6c6.6-10.7,18.8-11,26-6.4c4,2.6,6.9,6.4,8.4,11
			C503.1,129.1,502.5,137.5,498.8,145.6z"/>
		<path class="st0" d="M624.2,86.9c-8.7-3.8-17.6-5.2-26.9-5.2c-2.3,0-4.9,0-7.2,0.3c-6.9,0.6-13.6,2-19.7,4.9
			c-13.3,5.8-22.3,15.6-26.6,29.5c-2.3,7.8-2.6,15.9-1.4,24c1.2,7.5,3.8,14.5,8.4,20.5c6.1,8.1,13.9,13.6,23.4,16.8
			c9,3.2,18.2,4.3,27.7,3.8c6.1-0.3,11.8-1.4,17.6-3.2c9.2-3.2,17.3-8.1,23.4-15.9c5.2-6.6,8.1-13.9,9.2-22.3
			c1.2-7.8,0.9-15.6-1.4-23.4C646.7,102.2,637.5,92.7,624.2,86.9z M615.8,146.7c-2.9,6.1-7.5,10.1-14.2,11.3
			c-6.1,1.2-11.8,0.3-17.1-3.8c-2.9-2.3-4.9-5.5-6.4-9c-2-5.2-2.6-10.7-2.3-16.2c0.3-3.8,0.9-7.2,2-10.7c1.7-4.9,4.6-9,9.2-11.6
			c10.7-6.1,24-1.4,28.9,9.8c2,4.6,2.6,9.5,2.6,14.7C618.7,136.9,617.8,142.1,615.8,146.7z"/>
	</g>
</g>
</svg>
